<svg xmlns="http://www.w3.org/2000/svg" viewBox="0 0 2240 1038" preserveAspectRatio="xMidYMid" width="2240" height="1038" xmlns:xlink="http://www.w3.org/1999/xlink" style="shape-rendering:auto;display:block;background-position-x:0%;background-position-y:0%;background-size:auto;background-origin:padding-box;background-clip:border-box;background:scroll rgb(1, 44, 50) none  repeat;width:2240px;height:1038px;;animation:none"><g><path d="M -100 622.48 C -60.25 619.43 -59.69 619.52 -21.29 619.52 S 19.89 613.69 57.42 613.69 S 99.12 612.43 136.13 612.43 S 176.79 625.8 214.84 625.8 S 255.17 606.96 293.55 606.96 S 333.22 615.89 372.26 615.89 S 412.58 621.71 450.97 621.71 S 492.36 605.22 529.68 605.22 S 571.11 620.11 608.39 620.11 S 650.26 611.48 687.1 611.48 S 727.82 609.41 765.81 609.41 S 806.25 603.53 844.52 603.53 S 884.25 609.67 923.23 609.67 S 963.26 615.88 1001.94 615.88 S 1043.25 614.54 1080.65 614.54 S 1122.47 626.26 1159.35 626.26 S 1199.39 627.76 1238.06 627.76 S 1277.99 623.65 1316.77 623.65 S 1357.37 608.06 1395.48 608.06 S 1436.83 616.71 1474.19 616.71 S 1514.33 615.02 1552.9 615.02 S 1594.4 609.01 1631.61 609.01 S 1673.32 610.64 1710.32 610.64 S 1752.26 610.32 1789.03 610.32 S 1829.71 609.71 1867.74 609.71 S 1908.22 618.17 1946.45 618.17 S 1986.86 627.25 2025.16 627.25 S 2065.76 610.99 2103.87 610.99 S 2144.18 602.47 2182.58 602.47 S 2222.84 619.63 2261.29 619.63 S 2301.55 606.24 2340 606.24 S 2381.01 606.02 2418.71 606.02 L 2340 1038 L -100 1038 Z" fill="#0f3135" stroke-width="0" transform="matrix(1,0,0,1,0,0)" style="fill:rgb(15, 49, 53);transform:matrix(1, 0, 0, 1, 0, 0);;animation:none"></path>
<path d="M -100 653.19 C -59.01 633.29 -58.51 649.41 -19.21 649.41 S 21.85 641.1 61.59 641.1 S 103.59 637.89 142.38 637.89 S 184.08 640.48 223.18 640.48 S 265.48 653.17 303.97 653.17 S 344.47 641.26 384.77 641.26 S 426.05 646.13 465.56 646.13 S 506.09 631.85 546.36 631.85 S 587.29 639.67 627.15 639.67 S 669.02 633.59 707.95 633.59 S 749.23 633.3 788.74 633.3 S 830.43 642.09 869.54 642.09 S 910.56 647.2 950.33 647.2 S 992.74 644.91 1031.13 644.91 S 1071.97 642.05 1111.92 642.05 S 1153.43 636.48 1192.72 636.48 S 1234.91 645.15 1273.51 645.15 S 1315.4 644.65 1354.3 644.65 S 1395.88 651.73 1435.1 651.73 S 1477.95 637.44 1515.89 637.44 S 1558.86 658.38 1596.69 658.38 S 1637.41 651.59 1677.48 651.59 S 1719.38 635.66 1758.28 635.66 S 1799.96 629.18 1839.07 629.18 S 1881.37 635.27 1919.87 635.27 S 1961.57 637.37 2000.66 637.37 S 2043.49 648.32 2081.46 648.32 S 2124.44 645.69 2162.25 645.69 S 2203.55 648.25 2243.05 648.25 S 2284.89 649.06 2323.84 649.06 S 2365.59 633.22 2404.64 633.22 L 2340 1038 L -100 1038 Z" fill="#254346" stroke-width="0" transform="matrix(1,0,0,1,1.1340199708938599,0)" style="fill:rgb(37, 67, 70);transform:matrix(1, 0, 0, 1, 1.13402, 0);;animation:none"></path>
<path d="M -100 677.34 C -55.94 679.18 -56.52 680.61 -17.01 680.61 S 26.63 677.49 65.99 677.49 S 108.14 678.28 148.98 678.28 S 192.43 665.2 231.97 665.2 S 274.85 678.98 314.97 678.98 S 357.36 657.67 397.96 657.67 S 440.66 668.59 480.95 668.59 S 523.57 672.36 563.95 672.36 S 607.14 682.15 646.94 682.15 S 690.86 678.2 729.93 678.2 S 772.34 687.2 812.93 687.2 S 856.7 678.51 895.92 678.51 S 938.97 677.71 978.91 677.71 S 1022.82 665.79 1061.9 665.79 S 1105.52 689.89 1144.9 689.89 S 1188.75 654.12 1227.89 654.12 S 1271.49 663.76 1310.88 663.76 S 1353.05 677.96 1393.88 677.96 S 1437.64 676.92 1476.87 676.92 S 1518.67 671.07 1559.86 671.07 S 1601.71 683.64 1642.86 683.64 S 1684.9 670.91 1725.85 670.91 S 1769.83 686.85 1808.84 686.85 S 1852.36 672.84 1891.84 672.84 S 1935.44 669.22 1974.83 669.22 S 2017.93 665.72 2057.82 665.72 S 2099.4 674.44 2140.82 674.44 S 2183.94 677.89 2223.81 677.89 S 2266.71 675.85 2306.8 675.85 S 2349.42 685.69 2389.8 685.69 L 2340 1038 L -100 1038 Z" fill="#3b5658" stroke-width="0" transform="matrix(1,0,0,1,3.5863146781921387,0)" style="fill:rgb(59, 86, 88);transform:matrix(1, 0, 0, 1, 3.58631, 0);;animation:none"></path>
<path d="M -100 692.83 C -56.34 699.41 -56.75 712.95 -14.69 712.95 S 29.77 715.05 70.63 715.05 S 115.76 708.79 155.94 708.79 S 200.65 688.8 241.26 688.8 S 284.19 714.52 326.57 714.52 S 369.26 691.89 411.89 691.89 S 456.84 686.53 497.2 686.53 S 542.3 714.1 582.52 714.1 S 626.35 707.31 667.83 707.31 S 712.94 679.99 753.15 679.99 S 795.99 689.17 838.46 689.17 S 881.31 693.4 923.78 693.4 S 968.49 699.88 1009.09 699.88 S 1053.65 689.1 1094.41 689.1 S 1137.28 703.1 1179.72 703.1 S 1223.97 680.22 1265.03 680.22 S 1308.59 717.81 1350.35 717.81 S 1393.38 703.23 1435.66 703.23 S 1480.63 712.14 1520.98 712.14 S 1563.69 713.32 1606.29 713.32 S 1648.96 693.58 1691.61 693.58 S 1736.39 697.51 1776.92 697.51 S 1820.39 719.88 1862.24 719.88 S 1906.72 716.74 1947.55 716.74 S 1991.27 713.29 2032.87 713.29 S 2077.83 695.52 2118.18 695.52 S 2163.03 720.22 2203.5 720.22 S 2247.26 701.35 2288.81 701.35 S 2332.78 703.51 2374.13 703.51 L 2340 1038 L -100 1038 Z" fill="#51696b" stroke-width="0" transform="matrix(1,0,0,1,6.4136857986450195,0)" style="fill:rgb(81, 105, 107);transform:matrix(1, 0, 0, 1, 6.41369, 0);;animation:none"></path>
<path d="M -100 708.03 C -54.47 713.28 -53.75 731.19 -12.23 731.19 S 32.99 732.27 75.54 732.27 S 121.97 743.35 163.31 743.35 S 209.33 721.74 251.08 721.74 S 295.18 732.19 338.85 732.19 S 383.26 730.27 426.62 730.27 S 472.91 742.07 514.39 742.07 S 560.14 728.48 602.16 728.48 S 648.1 743.22 689.93 743.22 S 734.58 729.2 777.7 729.2 S 823.49 737.09 865.47 737.09 S 910.65 712.37 953.24 712.37 S 998.2 748.07 1041.01 748.07 S 1087.19 749.45 1128.78 749.45 S 1173.54 749.97 1216.55 749.97 S 1261.05 725.81 1304.32 725.81 S 1349.58 748.95 1392.09 748.95 S 1436.15 720.92 1479.86 720.92 S 1524.93 740.92 1567.63 740.92 S 1614.08 726.03 1655.4 726.03 S 1701.81 720.69 1743.17 720.69 S 1787.69 725.69 1830.94 725.69 S 1875.65 730.22 1918.71 730.22 S 1963.2 717.02 2006.47 717.02 S 2051.49 739.51 2094.24 739.51 S 2139.68 733.07 2182.01 733.07 S 2228.25 738.23 2269.78 738.23 S 2316.08 706.73 2357.55 706.73 L 2340 1038 L -100 1038 Z" fill="#677d7f" stroke-width="0" transform="matrix(1,0,0,1,8.86598014831543,0)" style="fill:rgb(103, 125, 127);transform:matrix(1, 0, 0, 1, 8.86598, 0);;animation:none"></path>
<path d="M -100 743.34 C -53.31 742.43 -52.85 772.56 -9.63 772.56 S 37.22 733.76 80.74 733.76 S 127.78 772.12 171.11 772.12 S 217.06 735.03 261.48 735.03 S 307.84 760.02 351.85 760.02 S 398.93 736.21 442.22 736.21 S 487.41 772.36 532.59 772.36 S 579.15 753.58 622.96 753.58 S 669.96 771.44 713.33 771.44 S 759.33 750.25 803.7 750.25 S 850.78 779.69 894.07 779.69 S 940.57 740.9 984.44 740.9 S 1029.99 774.61 1074.81 774.61 S 1122.28 755.66 1165.19 755.66 S 1210.42 772.47 1255.56 772.47 S 1301.98 767.17 1345.93 767.17 S 1391.6 765.84 1436.3 765.84 S 1483.36 754.35 1526.67 754.35 S 1572.55 777.61 1617.04 777.61 S 1662.98 749.75 1707.41 749.75 S 1754.97 780.26 1797.78 780.26 S 1843.38 744.5 1888.15 744.5 S 1934.27 767.95 1978.52 767.95 S 2025.6 735.87 2068.89 735.87 S 2115.19 760.73 2159.26 760.73 S 2204.96 755.71 2249.63 755.71 S 2297.06 771.91 2340 771.91 S 2386.23 737.85 2430.37 737.85 L 2340 1038 L -100 1038 Z" fill="#7e9193" stroke-width="0" transform="matrix(1,0,0,1,10,0)" style="fill:rgb(126, 145, 147);transform:matrix(1, 0, 0, 1, 10, 0);;animation:none"></path>
<path d="M -100 781.65 C -51.91 781.12 -51.05 796.11 -6.87 796.11 S 41.9 769.14 86.26 769.14 S 133.42 812.72 179.39 812.72 S 226.45 771.21 272.52 771.21 S 321.28 798.49 365.65 798.49 S 413 763.01 458.78 763.01 S 507.86 797.77 551.91 797.77 S 598.49 767.72 645.04 767.72 S 692.63 792.92 738.17 792.92 S 784.91 769.09 831.3 769.09 S 879.7 794.16 924.43 794.16 S 972.02 770.8 1017.56 770.8 S 1064.81 792.87 1110.69 792.87 S 1157.51 783.31 1203.82 783.31 S 1252.28 807.39 1296.95 807.39 S 1344.75 773.28 1390.08 773.28 S 1437.14 794.26 1483.21 794.26 S 1531.26 775.9 1576.34 775.9 S 1623.01 793.17 1669.47 793.17 S 1716.98 774.26 1762.6 774.26 S 1810.85 795.57 1855.73 795.57 S 1903.92 780.22 1948.85 780.22 S 1996.67 794.61 2041.98 794.61 S 2089.02 776.46 2135.11 776.46 S 2182.97 795.74 2228.24 795.74 S 2275.54 758.73 2321.37 758.73 S 2370.43 782.76 2414.5 782.76 L 2340 1038 L -100 1038 Z" fill="#95a6a7" stroke-width="0" transform="matrix(1,0,0,1,8.86598014831543,0)" style="fill:rgb(149, 166, 167);transform:matrix(1, 0, 0, 1, 8.86598, 0);;animation:none"></path>
<path d="M -100 809.37 C -50.54 789.51 -49.42 820.57 -3.94 820.57 S 45.62 784.51 92.13 784.51 S 140.69 832.15 188.19 832.15 S 236.58 791.25 284.25 791.25 S 332.5 793.62 380.31 793.62 S 430.12 790.67 476.38 790.67 S 526.62 838.99 572.44 838.99 S 621.92 787.17 668.5 787.17 S 717.56 839.91 764.57 839.91 S 812.82 843.57 860.63 843.57 S 909.29 838.58 956.69 838.58 S 1007.16 807.49 1052.76 807.49 S 1101.23 787.58 1148.82 787.58 S 1197.48 796.23 1244.88 796.23 S 1295.13 834.09 1340.94 834.09 S 1389.7 805.06 1437.01 805.06 S 1487.52 809.26 1533.07 809.26 S 1583.46 793.07 1629.13 793.07 S 1679.07 801.37 1725.2 801.37 S 1774.9 783.85 1821.26 783.85 S 1871.08 824.67 1917.32 824.67 S 1967.29 805.01 2013.39 805.01 S 2061.8 840.53 2109.45 840.53 S 2158.36 804.22 2205.51 804.22 S 2253.61 821.25 2301.57 821.25 S 2349.94 794.7 2397.64 794.7 L 2340 1038 L -100 1038 Z" fill="#adbcbc" stroke-width="0" transform="matrix(1,0,0,1,6.4136857986450195,0)" style="fill:rgb(173, 188, 188);transform:matrix(1, 0, 0, 1, 6.41369, 0);;animation:none"></path>
<path d="M -100 833.41 C -48.73 812.72 -48.28 864.4 -0.81 864.4 S 50.98 820.74 98.37 820.74 S 148.41 861.83 197.56 861.83 S 247.69 855.77 296.75 855.77 S 347.64 871.53 395.93 871.53 S 447.19 857.57 495.12 857.57 S 545.11 853.92 594.31 853.92 S 646.16 835.14 693.5 835.14 S 745.01 862.51 792.68 862.51 S 843 824.41 891.87 824.41 S 942.77 857.51 991.06 857.51 S 1042.04 874.91 1090.24 874.91 S 1142.16 831.02 1189.43 831.02 S 1240.15 813.54 1288.62 813.54 S 1338.46 870.42 1387.8 870.42 S 1437.49 834.64 1486.99 834.64 S 1538.08 862.22 1586.18 862.22 S 1637.47 866.92 1685.37 866.92 S 1737.18 865.71 1784.55 865.71 S 1834.35 813.89 1883.74 813.89 S 1933.36 867.15 1982.93 867.15 S 2032.98 832.29 2082.11 832.29 S 2133.08 866.96 2181.3 866.96 S 2231.4 829.84 2280.49 829.84 S 2330.11 856 2379.67 856 L 2340 1038 L -100 1038 Z" fill="#c6d2d2" stroke-width="0" transform="matrix(1,0,0,1,3.5863142013549805,0)" style="fill:rgb(198, 210, 210);transform:matrix(1, 0, 0, 1, 3.58631, 0);;animation:none"></path>
<path d="M -100 841.16 C -47.53 858.79 -48.03 859.38 2.52 859.38 S 54.26 856.09 105.04 856.09 S 157.51 858.49 207.56 858.49 S 260.13 888.12 310.08 888.12 S 363.31 890.53 412.61 890.53 S 464.13 842.24 515.13 842.24 S 567.57 896.56 617.65 896.56 S 670.45 889.66 720.17 889.66 S 772.69 889.54 822.69 889.54 S 875.06 850.49 925.21 850.49 S 977.21 896.43 1027.73 896.43 S 1081.19 852.36 1130.25 852.36 S 1182.72 888.38 1232.77 888.38 S 1285.61 841.14 1335.29 841.14 S 1388.79 840.63 1437.82 840.63 S 1489.97 889.77 1540.34 889.77 S 1593.23 886.95 1642.86 886.95 S 1694.75 841.34 1745.38 841.34 S 1797.68 893.58 1847.9 893.58 S 1900.86 854.26 1950.42 854.26 S 2004.04 885.78 2052.94 885.78 S 2106.7 840.46 2155.46 840.46 S 2206.84 900.77 2257.98 900.77 S 2310.64 852.52 2360.5 852.52 L 2340 1038 L -100 1038 Z" fill="#dfe8e8" stroke-width="0" transform="matrix(1,0,0,1,1.1340198516845703,0)" style="fill:rgb(223, 232, 232);transform:matrix(1, 0, 0, 1, 1.13402, 0);;animation:none"></path>
<g></g></g><!-- [ldio] generated by https://loading.io --></svg>