<svg xmlns="http://www.w3.org/2000/svg" viewBox="0 0 2240 1038" preserveAspectRatio="xMidYMid" width="2240" height="1038" xmlns:xlink="http://www.w3.org/1999/xlink" style="shape-rendering:auto;display:block;background-position-x:0%;background-position-y:0%;background-size:auto;background-origin:padding-box;background-clip:border-box;background:scroll rgb(255, 255, 255) none  repeat;width:2240px;height:1038px;;animation:none"><g><g transform="matrix(100,0,0,100,2569.758544921875,-534.3111572265625)" opacity="0.4" style="transform:matrix(100, 0, 0, 100, 2569.76, -534.311);opacity:0.4;;animation:none"><path d="M17.561600000000002 0 C17.561600000000002 3.5839999999999996 17.621558740533484 6.035364952836571 15.829558740533486 9.139199999999999 S11.88463504716343 13.4167917311008 8.780800000000003 15.2087917311008 S3.584000000000001 18.2784 1.1192292026767492e-15 18.2784 S-5.6769649528365695 17.0007917311008 -8.780799999999997 15.208791731100801 S-14.03755874053348 12.243035047163433 -15.829558740533482 9.139200000000006 S-17.561600000000002 3.584000000000002 -17.561600000000002 2.150675722790616e-15 S-17.621558740533487 -6.0353649528365665 -15.829558740533487 -9.139199999999995 S-11.884635047163435 -13.416791731100794 -8.780800000000008 -15.208791731100796 S-3.584000000000003 -18.2784 -3.357687608030247e-15 -18.2784 S5.67696495283656 -17.000791731100804 8.780799999999989 -15.208791731100806 S14.037558740533479 -12.243035047163437 15.82955874053348 -9.13920000000001 S17.561600000000002 -3.584000000000004 17.561600000000002 -4.301351445581232e-15" fill="#0055ff" stroke-width="0" transform="matrix(1,0,0,1,0,0)" style="fill:rgb(0, 85, 255);transform:matrix(1, 0, 0, 1, 0, 0);;animation:none"></path></g>
<g transform="matrix(100,0,0,100,2859.710205078125,-744.973388671875)" opacity="0.4" style="transform:matrix(100, 0, 0, 100, 2859.71, -744.973);opacity:0.4;;animation:none"><path d="M21.07392 0 C21.07392 4.3008 21.145870488640185 7.2424379434038855 18.995470488640184 10.967039999999999 S14.261562056596116 16.100150077320954 10.536960000000002 18.250550077320955 S4.3008000000000015 21.93408 1.3430750432120989e-15 21.93408 S-6.812357943403882 20.400950077320957 -10.536959999999995 18.25055007732096 S-16.845070488640175 14.69164205659612 -18.995470488640176 10.967040000000008 S-21.07392 4.300800000000002 -21.07392 2.580810867348739e-15 S-21.14587048864018 -7.242437943403881 -18.995470488640184 -10.967039999999995 S-14.261562056596121 -16.10015007732095 -10.53696000000001 -18.250550077320952 S-4.300800000000004 -21.93408 -4.029225129636297e-15 -21.93408 S6.812357943403871 -20.400950077320964 10.536959999999986 -18.250550077320966 S16.845070488640175 -14.691642056596121 18.995470488640176 -10.96704000000001 S21.07392 -4.300800000000005 21.07392 -5.161621734697478e-15" fill="#0046ff" stroke-width="0" transform="matrix(1,0,0,1,0,0)" style="fill:rgb(0, 70, 255);transform:matrix(1, 0, 0, 1, 0, 0);;animation:none"></path></g>
<g transform="matrix(100,0,0,100,3555.59423828125,-1250.562744140625)" opacity="0.4" style="transform:matrix(100, 0, 0, 100, 3555.59, -1250.56);opacity:0.4;;animation:none"><path d="M29.503487999999997 0 C29.503487999999997 6.021119999999998 29.604218684096253 10.13941312076544 26.593658684096255 15.353855999999999 S19.96618687923456 22.540210108249333 14.751744000000002 25.550770108249335 S6.02112 30.707712 1.8803050604969383e-15 30.707712 S-9.537301120765434 28.561330108249336 -14.751743999999992 25.55077010824934 S-23.583098684096246 20.56829887923457 -26.593658684096248 15.353856000000011 S-29.503487999999997 6.021120000000002 -29.503487999999997 3.613135214288234e-15 S-29.604218684096256 -10.139413120765433 -26.59365868409626 -15.353855999999992 S-19.966186879234566 -22.54021010824933 -14.751744000000011 -25.55077010824933 S-6.021120000000003 -30.707712 -5.640915181490815e-15 -30.707712 S9.53730112076542 -28.561330108249344 14.751743999999979 -25.55077010824935 S23.583098684096242 -20.568298879234572 26.593658684096244 -15.353856000000015 S29.503487999999997 -6.021120000000005 29.503487999999997 -7.226270428576468e-15" fill="#0033ff" stroke-width="0" transform="matrix(1,0,0,1,0,0)" style="fill:rgb(0, 51, 255);transform:matrix(1, 0, 0, 1, 0, 0);;animation:none"></path></g>
<g></g></g><!-- [ldio] generated by https://loading.io --></svg>